HIERARCHY
ROOT Hips
{
	OFFSET -0.001795 -0.223333 0.028219
	CHANNELS 6 Xposition Yposition Zposition Zrotation Yrotation Xrotation 
	JOINT LeftUpLeg
	{
		OFFSET 0.069520 -0.091406 -0.006815
		CHANNELS 3 Zrotation Yrotation Xrotation
		JOINT LeftLeg
		{
			OFFSET 0.034277 -0.375199 -0.004496
			CHANNELS 3 Zrotation Yrotation Xrotation
			JOINT LeftFoot
			{
				OFFSET -0.013596 -0.397961 -0.043693
				CHANNELS 3 Zrotation Yrotation Xrotation
				JOINT LeftToe
				{
					OFFSET 0.026358 -0.055791 0.119288
					CHANNELS 3 Zrotation Yrotation Xrotation
					End Site
					{
						OFFSET 0.000000 0.000000 0.000000
					}
				}
			}
		}
	}
	JOINT RightUpLeg
	{
		OFFSET -0.067670 -0.090522 -0.004320
		CHANNELS 3 Zrotation Yrotation Xrotation
		JOINT RightLeg
		{
			OFFSET -0.038290 -0.382569 -0.008850
			CHANNELS 3 Zrotation Yrotation Xrotation
			JOINT RightFoot
			{
				OFFSET 0.015774 -0.398415 -0.042312
				CHANNELS 3 Zrotation Yrotation Xrotation
				JOINT RightToe
				{
					OFFSET -0.025372 -0.048144 0.123348
					CHANNELS 3 Zrotation Yrotation Xrotation
					End Site
					{
						OFFSET 0.000000 0.000000 0.000000
					}
				}
			}
		}
	}
	JOINT Spine
	{
		OFFSET -0.002533 0.108963 -0.026696
		CHANNELS 3 Zrotation Yrotation Xrotation
		JOINT Spine1
		{
			OFFSET 0.005487 0.135180 0.001092
			CHANNELS 3 Zrotation Yrotation Xrotation
			JOINT Spine2
			{
				OFFSET 0.001457 0.052922 0.025425
				CHANNELS 3 Zrotation Yrotation Xrotation
				JOINT Neck
				{
					OFFSET -0.002778 0.213870 -0.042857
					CHANNELS 3 Zrotation Yrotation Xrotation
					JOINT Head
					{
						OFFSET 0.005152 0.064970 0.051349
						CHANNELS 3 Zrotation Yrotation Xrotation
						End Site
						{
							OFFSET 0.000000 0.000000 0.000000
						}
					}
				}
				JOINT LeftShoulder
				{
					OFFSET 0.078845 0.121749 -0.034090
					CHANNELS 3 Zrotation Yrotation Xrotation
					JOINT LeftArm
					{
						OFFSET 0.090977 0.030469 -0.008868
						CHANNELS 3 Zrotation Yrotation Xrotation
						JOINT LeftForeArm
						{
							OFFSET 0.259612 -0.012772 -0.027456
							CHANNELS 3 Zrotation Yrotation Xrotation
							JOINT LeftHand
							{
								OFFSET 0.249234 0.008986 -0.001171
								CHANNELS 3 Zrotation Yrotation Xrotation
								End Site
								{
									OFFSET 0.000000 0.000000 0.000000
								}
							}
						}
					}
				}
				JOINT RightShoulder
				{
					OFFSET -0.081759 0.118833 -0.038615
					CHANNELS 3 Zrotation Yrotation Xrotation
					JOINT RightArm
					{
						OFFSET -0.096012 0.032551 -0.009143
						CHANNELS 3 Zrotation Yrotation Xrotation
						JOINT RightForeArm
						{
							OFFSET -0.253742 -0.013329 -0.021401
							CHANNELS 3 Zrotation Yrotation Xrotation
							JOINT RightHand
							{
								OFFSET -0.255298 0.007772 -0.005559
								CHANNELS 3 Zrotation Yrotation Xrotation
								End Site
								{
									OFFSET 0.000000 0.000000 0.000000
								}
							}
						}
					}
				}
			}
		}
	}
}
MOTION
Frames: 16
Frame Time: 0.050000
-0.969153 0.935220 1.435575 -126.007422 -87.579134 128.845725 2.208077 1.453237 1.776263 5.588212 0.596864 7.425676 -9.632797 -4.794736 -6.232441 0.000000 0.000000 0.000000 4.750386 -0.018918 -0.824371 -3.946296 0.384311 -0.903330 15.385683 25.356243 7.095034 0.000000 0.000000 0.000000 -3.239425 0.592275 -3.476503 1.861742 -0.403433 -7.896296 0.442754 -4.558398 4.417406 5.591937 -5.778798 -20.656800 0.000000 0.000000 0.000000 19.309652 -25.153532 5.962403 20.662662 -37.689583 -0.248445 33.829584 -9.718283 1.015030 0.000000 0.000000 0.000000 -9.962057 16.595728 7.532039 -6.048539 43.702287 -15.150367 -40.698462 35.194774 -23.580737 0.000000 0.000000 0.000000 
-0.969066 0.935151 1.435117 -117.193380 -87.677782 120.082900 2.362273 1.478410 1.816046 5.699117 0.479145 7.141844 -9.701963 -5.031372 -6.217072 0.000000 0.000000 0.000000 5.004087 -0.047846 -0.746225 -4.072658 0.371315 -1.109780 15.261224 25.067013 7.055534 0.000000 0.000000 0.000000 -3.379218 0.617444 -3.606272 1.831616 -0.431967 -8.000233 0.543909 -4.858497 4.649044 5.562665 -5.749867 -20.393046 0.000000 0.000000 0.000000 19.964113 -25.169954 5.664430 21.509693 -38.320113 -0.263050 33.328546 -9.039912 1.112620 0.000000 0.000000 0.000000 -10.298489 15.829161 7.608876 -6.581626 44.549796 -15.924849 -40.472160 34.894287 -23.256312 0.000000 0.000000 0.000000 
-0.968847 0.935074 1.435013 -110.346479 -87.753982 113.120762 2.467436 1.491020 1.803076 5.736363 0.483305 7.281171 -9.810693 -5.329275 -6.242873 0.000000 0.000000 0.000000 5.003884 -0.048339 -0.559762 -3.923158 0.375336 -1.204544 15.144806 24.801140 7.000624 0.000000 0.000000 0.000000 -3.454889 0.611008 -3.524504 1.783198 -0.466243 -8.174330 0.581234 -5.036725 4.719116 5.477939 -5.717120 -20.249281 0.000000 0.000000 0.000000 20.234996 -25.005932 5.435836 22.051256 -39.797159 -0.306625 33.536235 -8.989295 1.065978 0.000000 0.000000 0.000000 -10.774775 15.606031 7.874280 -6.617722 45.069679 -16.350556 -40.768826 34.709439 -23.408324 0.000000 0.000000 0.000000 
-0.968473 0.934808 1.435113 -88.876607 -87.897517 91.594550 2.575384 1.474643 1.681969 5.849478 0.422235 7.317675 -10.091169 -6.047141 -6.263051 0.000000 0.000000 0.000000 5.265320 -0.079088 -0.402951 -4.265144 0.342128 -1.311122 14.583575 24.266869 6.551706 0.000000 0.000000 0.000000 -3.547098 0.615401 -3.556829 1.866188 -0.503258 -8.104666 0.382597 -5.175018 4.858144 5.150954 -5.614756 -19.582039 0.000000 0.000000 0.000000 20.570656 -25.269817 5.318605 22.248567 -40.446332 -0.355942 34.543729 -8.767520 1.140385 0.000000 0.000000 0.000000 -11.073224 15.339872 8.039033 -6.608458 45.233433 -16.438184 -40.947342 34.492047 -23.382596 0.000000 0.000000 0.000000 
-0.967859 0.934367 1.435345 -76.601337 -87.788311 79.076332 2.932467 1.540675 1.621197 5.556696 0.553433 7.698970 -10.402653 -6.733561 -6.402209 0.000000 0.000000 0.000000 5.084659 -0.061434 -0.077950 -3.767711 0.363772 -1.419796 14.296867 23.838358 6.353817 0.000000 0.000000 0.000000 -3.408468 0.583559 -3.476006 1.888167 -0.531931 -8.111312 0.109800 -4.796453 4.888341 5.293400 -5.683084 -19.210492 0.000000 0.000000 0.000000 20.722032 -25.739854 5.333172 21.843202 -41.350545 -0.381792 35.720774 -9.006227 1.078230 0.000000 0.000000 0.000000 -10.982067 15.333327 8.013935 -6.091365 45.239431 -16.079895 -40.816154 35.041323 -23.525200 0.000000 0.000000 0.000000 
-0.967048 0.933800 1.435590 -60.893948 -87.543704 63.444230 3.186785 1.579596 1.641644 5.316213 0.476509 7.235322 -10.673847 -7.330828 -6.469916 0.000000 0.000000 0.000000 4.957302 -0.063677 -0.179719 -3.442985 0.376182 -1.389935 13.771422 23.378781 5.960437 0.000000 0.000000 0.000000 -3.502503 0.602896 -3.614700 1.977354 -0.580373 -8.190620 0.022337 -4.747857 5.345967 5.076367 -5.665289 -19.178516 0.000000 0.000000 0.000000 20.559984 -25.979518 5.453300 21.540697 -41.952109 -0.426757 37.666111 -9.011793 1.167344 0.000000 0.000000 0.000000 -10.932353 15.188934 7.971083 -6.070042 45.821277 -16.414844 -41.072040 35.065203 -23.559971 0.000000 0.000000 0.000000 
-0.966189 0.933244 1.435784 -52.578818 -87.237284 55.009398 3.476047 1.663729 1.945150 5.068971 0.400540 6.700858 -10.893754 -7.785438 -6.555466 0.000000 0.000000 0.000000 4.988927 -0.062116 0.191486 -3.334724 0.383818 -1.861402 13.500500 22.944976 5.784760 0.000000 0.000000 0.000000 -3.569466 0.618678 -3.748656 2.087856 -0.568347 -7.832267 -0.099277 -4.557907 5.254247 5.308714 -5.700276 -18.477549 0.000000 0.000000 0.000000 20.124820 -26.188943 5.658039 20.992707 -42.305478 -0.496583 39.716346 -8.955361 1.281385 0.000000 0.000000 0.000000 -10.606649 15.440554 7.853838 -5.205505 45.663184 -15.716432 -41.721527 35.195763 -23.891871 0.000000 0.000000 0.000000 
-0.965293 0.933177 1.436198 -53.694081 -87.213684 56.154591 3.497384 1.702067 2.242826 5.034201 0.276158 6.028352 -10.850365 -7.632628 -6.551110 0.000000 0.000000 0.000000 4.906477 -0.050129 0.282118 -3.139133 0.411242 -2.200153 13.634607 22.839199 5.973695 0.000000 0.000000 0.000000 -3.692862 0.661864 -4.013177 2.311985 -0.666408 -8.320020 -0.236634 -3.800533 5.806315 5.404691 -5.811819 -18.430233 0.000000 0.000000 0.000000 20.601829 -26.336986 5.388533 19.121917 -42.851511 -0.069136 41.027746 -9.147643 1.389350 0.000000 0.000000 0.000000 -10.360843 15.156629 7.664711 -3.557206 46.118873 -15.151252 -41.864168 36.401535 -24.674496 0.000000 0.000000 0.000000 
-0.964377 0.933456 1.437275 -51.506575 -87.136505 54.040666 3.359475 1.723433 2.793487 5.113814 0.021536 4.757800 -10.721398 -7.458996 -6.324581 0.000000 0.000000 0.000000 4.919372 -0.046700 0.447825 -3.284355 0.418331 -2.745449 13.761911 22.566970 6.215365 0.000000 0.000000 0.000000 -3.502703 0.669880 -4.242003 2.105323 -0.635691 -8.354036 -0.044099 -3.816271 6.204958 5.056210 -5.730202 -18.633570 0.000000 0.000000 0.000000 19.892702 -25.761984 5.437414 18.312061 -42.998991 0.022048 42.031875 -9.853473 1.278751 0.000000 0.000000 0.000000 -10.331496 15.187079 7.627897 -2.530731 45.957081 -14.603969 -42.250479 37.735322 -25.874558 0.000000 0.000000 0.000000 
-0.963252 0.933875 1.439745 -60.566949 -87.418099 63.277084 2.996738 1.696557 3.148281 5.208069 -0.131205 3.823298 -10.400197 -6.742883 -6.209038 0.000000 0.000000 0.000000 4.798486 -0.035011 0.198538 -3.454064 0.424493 -2.848349 14.159675 22.878371 6.567107 0.000000 0.000000 0.000000 -3.329469 0.685032 -4.421910 1.991934 -0.607254 -8.485036 0.001015 -3.142579 6.024291 5.089602 -5.774926 -19.040789 0.000000 0.000000 0.000000 19.546573 -25.688279 5.538853 17.538885 -43.266800 0.133527 42.185603 -10.162636 1.162052 0.000000 0.000000 0.000000 -9.996957 15.118838 7.413292 -0.685941 45.366696 -13.367344 -43.518974 39.424879 -27.850728 0.000000 0.000000 0.000000 
-0.962209 0.934260 1.443529 -73.767626 -87.666392 76.606889 2.447072 1.636768 3.495373 5.411875 -0.270685 3.031091 -10.040893 -5.927578 -6.150994 0.000000 0.000000 0.000000 4.392355 0.021457 0.233472 -3.308101 0.480494 -3.381250 14.727796 23.062247 7.135500 0.000000 0.000000 0.000000 -2.998542 0.684245 -4.578304 1.832972 -0.557071 -8.516809 0.337556 -3.189118 6.178585 4.360461 -5.560531 -19.432357 0.000000 0.000000 0.000000 18.726319 -25.352476 5.885203 17.865657 -43.289551 -0.007584 41.171892 -10.092394 1.040718 0.000000 0.000000 0.000000 -10.052091 15.256846 7.413766 0.039457 45.588636 -13.298167 -43.966658 40.365693 -28.971625 0.000000 0.000000 0.000000 
-0.961358 0.934673 1.448328 -82.659129 -87.720644 85.601953 1.955088 1.621292 4.083216 5.561030 -0.446523 1.795323 -9.718436 -5.351524 -5.949492 0.000000 0.000000 0.000000 3.963442 0.071287 0.120955 -3.139756 0.515367 -3.543023 15.065132 23.146800 7.500420 0.000000 0.000000 0.000000 -2.664393 0.678691 -4.705962 1.662309 -0.482853 -8.307422 0.552034 -3.598981 5.730618 4.062146 -5.406281 -19.543543 0.000000 0.000000 0.000000 18.159351 -25.223539 6.249556 18.698111 -43.155490 -0.242110 39.032160 -9.592156 0.931468 0.000000 0.000000 0.000000 -9.859928 15.665460 7.321547 1.052462 44.965284 -12.535742 -45.428006 41.156308 -30.730254 0.000000 0.000000 0.000000 
-0.960916 0.934877 1.453488 -94.319800 -87.583027 97.373807 1.508474 1.643030 4.706344 5.819017 -0.606839 0.555137 -9.412387 -4.694330 -5.826655 0.000000 0.000000 0.000000 3.791896 0.098700 0.114452 -3.246945 0.540901 -3.889532 15.483546 23.328907 7.905323 0.000000 0.000000 0.000000 -2.348817 0.669154 -4.730618 1.757904 -0.500433 -8.514481 0.822691 -3.722848 5.702991 3.605544 -5.241833 -19.637488 0.000000 0.000000 0.000000 17.817262 -25.100572 6.496474 20.397771 -43.395660 -0.595249 35.533082 -8.025374 0.955041 0.000000 0.000000 0.000000 -9.706286 15.136223 7.044053 2.047252 45.533133 -12.403343 -46.766372 42.070007 -32.408037 0.000000 0.000000 0.000000 
-0.960487 0.934926 1.458687 -105.007859 -87.379904 108.159925 0.906864 1.597369 5.035863 6.272101 -0.733478 -0.135363 -9.116000 -4.001502 -5.854225 0.000000 0.000000 0.000000 3.335412 0.161019 0.056268 -2.896038 0.610909 -4.124827 15.880980 23.469629 8.306521 0.000000 0.000000 0.000000 -2.193452 0.670637 -4.746336 1.622470 -0.422166 -8.293943 1.295506 -4.219442 5.254974 3.001565 -4.947129 -19.568199 0.000000 0.000000 0.000000 17.875452 -25.169492 6.707464 21.991314 -43.065586 -0.847781 32.073454 -5.901406 1.103596 0.000000 0.000000 0.000000 -9.658825 15.575749 7.052476 3.531045 45.282356 -11.693715 -49.895887 42.319057 -35.086022 0.000000 0.000000 0.000000 
-0.959802 0.935360 1.463630 -107.528176 -87.262045 110.736496 0.367818 1.586504 5.488831 6.719075 -0.860764 -1.110114 -8.852240 -3.667590 -5.577274 0.000000 0.000000 0.000000 3.325256 0.156341 -0.040778 -3.349757 0.569283 -4.183619 16.065206 23.540266 8.496655 0.000000 0.000000 0.000000 -2.197382 0.627470 -4.432789 1.826273 -0.468832 -8.423196 1.510660 -4.484509 5.060570 2.252706 -4.723110 -20.071448 0.000000 0.000000 0.000000 17.707948 -25.292921 6.946570 23.981463 -43.480492 -1.260132 28.645863 -3.261485 1.193084 0.000000 0.000000 0.000000 -9.258958 15.323650 6.690302 4.925382 46.570299 -11.709625 -51.214465 43.054983 -36.472027 0.000000 0.000000 0.000000 
-0.958697 0.935429 1.468202 -104.882966 -87.276731 108.213130 0.000218 1.538552 5.606979 6.896435 -0.909610 -1.718801 -8.778510 -3.673634 -5.455363 0.000000 0.000000 0.000000 3.002635 0.180206 -0.382529 -3.255449 0.560098 -3.926679 15.943905 23.465545 8.432211 0.000000 0.000000 0.000000 -2.147893 0.614834 -4.346247 1.751870 -0.391396 -7.974985 1.611870 -5.020756 4.553456 1.548650 -4.470843 -20.450116 0.000000 0.000000 0.000000 17.718352 -25.401146 7.067696 25.705791 -43.723689 -1.597235 25.664939 -0.588273 1.289395 0.000000 0.000000 0.000000 -8.868173 15.706239 6.498491 6.088695 47.028472 -11.383885 -53.476752 42.293055 -37.492689 0.000000 0.000000 0.000000 
